<svg xmlns="http://www.w3.org/2000/svg" xmlns:xlink="http://www.w3.org/1999/xlink" width="115.7" height="96.355" viewBox="0 0 115.7 96.355"><defs><clipPath id="a"><rect width="115.7" height="96.355" fill="#fff"/></clipPath><clipPath id="b"><rect width="113.47" height="84.082" fill="#fff"/></clipPath></defs><g transform="translate(-243.625 -802.804)" style="mix-blend-mode:multiply;isolation:isolate"><g transform="translate(243.625 802.804)"><g clip-path="url(#a)"><g transform="translate(1.115 6.189)"><g clip-path="url(#b)"><path d="M350.178,861.441a7.193,7.193,0,0,0-4.887-2.1,7.244,7.244,0,0,0-1.549-7.894,7.2,7.2,0,0,0-5.023-2.107,7.2,7.2,0,0,0-5.819-9.714l14.158-14.16a7.218,7.218,0,0,0-10.207-10.207l-27.364,27.362a13.037,13.037,0,0,0-12.964-12.055A1.436,1.436,0,0,0,295.087,832v33.908c-.013.355-.02.668-.02.946a24.824,24.824,0,0,0,23.762,24.793c.39.016.742.023,1.048.023,10,0,15.5-5.388,23.138-12.887l.55-.538,0,0c.1-.1.207-.191.308-.291l6.307-6.307a7.236,7.236,0,0,0,0-10.207m-15.126-7.357c.74-.513,2.715-1.879,3.585-1.879a4.347,4.347,0,0,1,3.072,7.415l-1.033,1.153,2.32,2.659c.364-.1,1.7-1.227,2.076-1.227a4.349,4.349,0,0,1,3.076,7.414l-6.307,6.305c-.361.361-.361.361-1,1.074-1.431,1.458-1.431,1.458-1.867,1.88-.7.591-.7.591-1.3,1.1-5.573,5.274-10.381,8.817-17.8,8.817-.358,0-.666,0-.93-.018a21.934,21.934,0,0,1-21.009-21.928c0-.311,0-.588.013-.83,0-.049.008-.1.008-.146V833.535a10.17,10.17,0,0,1,8.691,10.028v3.106h.006c0,.045,0,.388.005.433h2.977c.079-.162.164-.568.263-.717a4.446,4.446,0,0,1,.554-.672l28.426-28.426a4.347,4.347,0,0,1,6.148,6.148c-.517.517-15.2,15.237-20.036,20.1L326.9,845.7l2-2a4.347,4.347,0,0,1,6.148,6.146l-2,2.031,1.968,2.236" transform="translate(-238.815 -807.802)" fill="#fff"/><path d="M248.6,848.393a4.15,4.15,0,0,0-1.223,2.942v9.25a4.166,4.166,0,0,0,8.332,0v-9.25a4.161,4.161,0,0,0-7.108-2.942m26.545,8.519h-.025v0H265.18a7.85,7.85,0,0,0,3.046,5.971,12.908,12.908,0,0,0,7.265,2.334h.008c.389.02.768.026,1.132.02a1.372,1.372,0,0,1,1.386,1.354l.035,4.228a1.37,1.37,0,0,1-1.285,1.379v0a8.709,8.709,0,0,0-5.678,2.507,7.871,7.871,0,0,0-2.23,5.5,1.371,1.371,0,0,1-2.742-.042,10.592,10.592,0,0,1,3.015-7.379,11.338,11.338,0,0,1,6.17-3.172l-.015-1.656a17.005,17.005,0,0,1-6.963-1.771,6.275,6.275,0,0,1-3.4,2.927,6.535,6.535,0,0,1-3.255.271,7.08,7.08,0,0,1-3-1.262,6.819,6.819,0,0,1-2.2-2.684l-.029.029a6.887,6.887,0,0,1-8.943.709,38.414,38.414,0,0,0,.832,6.959,20.973,20.973,0,0,0,5.469,10.368c.091.094-.042-.047.172.171a20.567,20.567,0,0,0,14.628,6,21.115,21.115,0,0,0,14.752-6.005c.088-.086-.03.024.174-.18a18.68,18.68,0,0,0,4.878-10.1,47.5,47.5,0,0,0,.722-6.468,1.255,1.255,0,0,1-.032-.269c-.221-9.944-11.01-9.785-13.933-9.74m-30.521,3.673v-9.25a6.912,6.912,0,0,1,11.672-5.018,6.391,6.391,0,0,1,3.7-3.737,7.488,7.488,0,0,1,5.555,0,7.036,7.036,0,0,1,1.325.7L264.18,816c-.025-.254-.037-.477-.037-.672a7.127,7.127,0,0,1,1.63-4.505,6.282,6.282,0,0,1,4.218-2.3c.2-.019.377-.031.534-.035a6.941,6.941,0,0,1,7.43,6.3l2,22.827,1.4-15.987a6.939,6.939,0,0,1,7.458-6.293l.076.008a6.938,6.938,0,0,1,6.246,7.487l-3.171,36.254a77.005,77.005,0,0,1-.874,14.83c-.87,4.55-2.534,8.435-5.628,11.528-.079.079.009-.01-.207.2a23.832,23.832,0,0,1-16.664,6.78,23.3,23.3,0,0,1-16.573-6.792c-.091-.092.02.014-.194-.2a23.634,23.634,0,0,1-6.178-11.68,50.854,50.854,0,0,1-.928-12.057,6.729,6.729,0,0,1-.089-1.1m15.647,5.326a4.317,4.317,0,0,0,1.832.767,3.832,3.832,0,0,0,1.9-.152,3.658,3.658,0,0,0,2.031-1.884,10.185,10.185,0,0,1-2.64-3.544,12.143,12.143,0,0,1-.97-5.618,1.372,1.372,0,0,1,1.369-1.313v0h3.141V848.92a3.849,3.849,0,0,0-2.41-3.792,4.834,4.834,0,0,0-3.512,0,3.852,3.852,0,0,0-2.41,3.792v13.648a4.046,4.046,0,0,0,1.666,3.344m32.12-43.325a4.166,4.166,0,0,0-8.3-.729l-2.546,29.109h0a1.369,1.369,0,0,1-1.367,1.251l-.325,0a1.378,1.378,0,0,1-1.49-1.254l-3.144-35.948a4.18,4.18,0,0,0-4.491-3.787,1.19,1.19,0,0,1-.143.008c-.138,0-.244,0-.322.01a3.563,3.563,0,0,0-2.37,1.325,4.363,4.363,0,0,0-1,2.755c0,.163.006.3.014.4l3.8,38.435h4.417v.006c2.556-.04,10.078-.146,14.1,4.672Z" transform="translate(-244.625 -808.342)" fill="#fff"/></g></g></g></g></g></svg>