<svg xmlns="http://www.w3.org/2000/svg" width="375" height="375" viewBox="0 0 375 375"><path d="M188.5,375a188.938,188.938,0,0,1-37.788-3.809,186.485,186.485,0,0,1-67.045-28.213,188.563,188.563,0,0,1-50.645-50.645c-1.392-2.06-2.763-4.18-4.074-6.3H92.231a137.95,137.95,0,0,0,42.649,28.4,137.071,137.071,0,0,0,25.857,8.027,139.088,139.088,0,0,0,55.526,0,137,137,0,0,0,49.257-20.728,138.82,138.82,0,0,0,19.249-15.7h63.283c-1.319,2.133-2.69,4.252-4.074,6.3a188.046,188.046,0,0,1-82.495,67.932,186.614,186.614,0,0,1-35.2,10.926A188.938,188.938,0,0,1,188.5,375ZM62.376,242.986H9.348c-1.8-5.813-3.325-11.766-4.538-17.7a189.308,189.308,0,0,1,0-75.576A186.464,186.464,0,0,1,33.022,82.667a188.046,188.046,0,0,1,82.495-67.932,186.6,186.6,0,0,1,35.2-10.926,189.35,189.35,0,0,1,75.576,0,186.486,186.486,0,0,1,67.045,28.213,188.046,188.046,0,0,1,67.932,82.495,186.577,186.577,0,0,1,10.926,35.2,189.349,189.349,0,0,1,0,75.576c-1.214,5.932-2.741,11.886-4.539,17.7H314.625c.263-.6.534-1.223.8-1.864a137,137,0,0,0,8.027-25.858,139.082,139.082,0,0,0,0-55.525,137.011,137.011,0,0,0-20.728-49.258A138.161,138.161,0,0,0,242.12,60.57a137.068,137.068,0,0,0-25.857-8.026,139.086,139.086,0,0,0-55.526,0A136.989,136.989,0,0,0,111.48,73.271,138.14,138.14,0,0,0,61.571,133.88a137.061,137.061,0,0,0-8.027,25.857,139.082,139.082,0,0,0,0,55.525,137.068,137.068,0,0,0,8.027,25.858c.262.618.532,1.246.8,1.864Z" transform="translate(-1)" fill="#f0523f"/></svg>