<svg xmlns="http://www.w3.org/2000/svg" width="37.646" height="41.038" viewBox="0 0 37.646 41.038"><g transform="translate(-240.856 -140.755)"><path d="M3376.607,155.645l-1.7-1.51-1.571-.109-.71.728-.448,1.475,7.337,13.007-.73.263-4.2-.879-2.064,1.189.635,1.369,1.1,1.5,7.962,4.365,2.213,1.1,1.6.63,1.752,2.318,1.139,1,6.6-3.949,2.824-1.732-2.157-3.5.947-3.1-2.191-5.981-1.954-2.571-1.311-1.629-1.628.188-1.511.293-1.642-.293-1.408.1-1.361.466s-1.546-.282-1.769-.27-1.255,0-1.255,0l-1.4.462Z" transform="translate(-3123.565 -5.545)" fill="#fff"/><path d="M24.139,19.784v-.021c-.006-.224-.012-.447-.016-.652V16.343a3.947,3.947,0,0,0-.139-1.02,2.863,2.863,0,0,0-.5-1.121,2.553,2.553,0,0,0-2.156-1.156H21.32c-.044,0-.088-.005-.133-.005a3.293,3.293,0,0,0-1.022.154,2.672,2.672,0,0,0-.552-1.056,2.852,2.852,0,0,0-3.381-.952A2.854,2.854,0,0,0,12.564,9.21c0-2.1-.017-4.676-.025-5.793,0-.311,0-.512,0-.561a2.856,2.856,0,1,0-5.712,0c0,.178.021,11.584.022,12.068,0,.335-.005.632-.014.9-.454-.574-.978-1.2-1.609-1.938a3.069,3.069,0,0,0-2.428-1.093,2.794,2.794,0,0,0-2.072.922,2.187,2.187,0,0,0-.424.543A2.531,2.531,0,0,0,0,15.519c0,.021,0,.043,0,.064a2.794,2.794,0,0,0,.109.77,7.837,7.837,0,0,0,.92,2.01c.1.178.2.355.3.529l.056.1a46.5,46.5,0,0,0,6.258,9.367c.146.178.4.9.452,3.709l0,.215c0,.121.006.251.01.385a.788.788,0,0,0,.788.763h11.48a.788.788,0,0,0,.788-.776l.047-3.917q.168-.162.537-.474a5.2,5.2,0,0,0,.968-.964C24.277,24.989,24.2,22.224,24.139,19.784Zm-2.731,6.638a4.737,4.737,0,0,1-.682.644,4.482,4.482,0,0,0-.99,1,.786.786,0,0,0-.1.374l-.041,3.42H9.666c-.049-2.227-.22-3.85-.853-4.551A45.063,45.063,0,0,1,2.77,18.244l-.057-.1c-.1-.185-.208-.373-.317-.562a6.7,6.7,0,0,1-.755-1.6c0-.017-.008-.033-.013-.05a1.222,1.222,0,0,1-.051-.33c0-.016,0-.033,0-.05s0-.021,0-.032a.983.983,0,0,1,.1-.5.619.619,0,0,1,.131-.163.8.8,0,0,0,.068-.068,1.218,1.218,0,0,1,.916-.418,1.48,1.48,0,0,1,1.233.545,40.16,40.16,0,0,1,2.679,3.384l.04.057a.788.788,0,0,0,1.4-.233,12.6,12.6,0,0,0,.28-3.195c0-.119-.022-11.89-.022-12.066a1.279,1.279,0,1,1,2.558,0c0,.05,0,.255,0,.572.01,1.413.037,5.165.019,7.31,0,0,0,0,0,0v1.987a.788.788,0,0,0,1.577,0v-1.7a1.275,1.275,0,0,1,2.169.65c0,.024.01.048.017.071a1.8,1.8,0,0,1,.074.5v.419s0,0,0,.006v1.976a.788.788,0,1,0,1.577,0v-1.7a1.273,1.273,0,0,1,1.958.144.761.761,0,0,0,.048.061,1.128,1.128,0,0,1,.28.761q0,.041.006.082a4.474,4.474,0,0,1,0,.611c0,.006,0,.012,0,.018s0,.005,0,.008v1.984a.788.788,0,0,0,1.577,0V14.917a1.352,1.352,0,0,1,.916-.3l.075,0H21.3a1.026,1.026,0,0,1,.644.208,1.081,1.081,0,0,1,.233.262l.026.037a1.259,1.259,0,0,1,.233.522c0,.02.009.04.014.061a2.407,2.407,0,0,1,.09.63v2.783c0,.223.01.45.016.678v.021C22.621,22.029,22.687,24.526,21.408,26.422Z" transform="translate(240.856 152.838) rotate(-30)" fill="#1a1a1a"/></g></svg>