<svg xmlns="http://www.w3.org/2000/svg" xmlns:xlink="http://www.w3.org/1999/xlink" width="76.183" height="76.182" viewBox="0 0 76.183 76.182"><defs><clipPath id="a"><rect width="76.183" height="76.182" transform="translate(348.482 451.946)" fill="#fff"/></clipPath></defs><g transform="translate(-348.482 -451.946)" clip-path="url(#a)"><path d="M386.573,528.128a38.091,38.091,0,1,1,38.092-38.09,38.134,38.134,0,0,1-38.092,38.09m0-74.06a35.969,35.969,0,1,0,35.97,35.97,36.011,36.011,0,0,0-35.97-35.97" transform="translate(0 0)" fill="#fff"/><path d="M361.349,485.294H349.056v-2.1l11.073-.005Z" transform="translate(0.206 11.226)" fill="#fff"/><path d="M406.656,485.294H396.2l.439-2.1h8.816Z" transform="translate(17.144 11.226)" fill="#fff"/><path d="M389.06,496.107a1.716,1.716,0,0,1-.745-.062,1.813,1.813,0,0,0-1.925,2.795,10.692,10.692,0,0,0,.807.931c.745.807,1.3,1.117,1.862,1.117.994,0,1.3-.994,1.49-1.8a2.578,2.578,0,0,1,.249-.745,1.848,1.848,0,0,0,.124-1.862,1.4,1.4,0,0,0-1.862-.372" transform="translate(13.505 15.798)" fill="#fff"/><path d="M380.753,478.613a1.083,1.083,0,0,0-1.01.693l0,.008c-.007.02-.016.042-.022.064a1,1,0,0,0-.005.617,1.084,1.084,0,1,0,1.041-1.382" transform="translate(11.204 9.582)" fill="#fff"/><path d="M380.68,481.635a1.084,1.084,0,0,0-1.067.894,1.062,1.062,0,0,0-.023.22,1.089,1.089,0,0,0,2.179,0,1.06,1.06,0,0,0-.023-.22,1.082,1.082,0,0,0-1.066-.894" transform="translate(11.177 10.667)" fill="#fff"/><path d="M410.075,484.321a7.431,7.431,0,0,1-.62-.87.213.213,0,0,0-.062-.124l-.372-.372-.063-.063c-.062-.062-.062-.311-.062-.435a.977.977,0,0,0-.371-.931,6.5,6.5,0,0,1-2.361-3.912A2.461,2.461,0,0,0,404.3,476c-.869-.125-.994-.5-1.241-1.366a4.74,4.74,0,0,0-.372-1.117,4.472,4.472,0,0,1-.311-1.925c-.061-1.429-.124-3.228-2.358-3.973v-.062a7.229,7.229,0,0,0-.745-2.918,13.576,13.576,0,0,1-.5-1.49,1.345,1.345,0,0,0-.187-.31l-.373-.372a.528.528,0,0,0-.416-.186,2.2,2.2,0,0,1-.647-.088c-.813-.041-1.668,3.317-1.855,5.054-.061.5-.124.994-.185,1.491-.063.186-.063.435-.125.621a9.42,9.42,0,0,1-1.117,2.917c-.025,0-.444-.159-.5-.186s-.173-.08-.249-.124a28.6,28.6,0,0,1-3.6-2.483l-.559-.435a1.727,1.727,0,0,1-.435-2.3c.362-.466.712-.536.712-.8,0-.332-.107-1.343-.111-1.874l-.408-.341c-3.069-.27-2.116-.174-2.733-.231a5.259,5.259,0,0,1-1.619-1c-.091.056-2.975,1.44-3.048,1.472a7.247,7.247,0,0,0-2.285,1.507,3.81,3.81,0,0,0-.931,2.3c-.443-.1-.708-1.06-1.264-1.5a11.4,11.4,0,0,0-1.4-.6.528.528,0,0,0-.617.182l-1.85,2.538c-.359.155-2.878.078-3.192.313-1.744,1.309-3.121,2.932-2.977,4.116.054.449.359,1.193.111,1.566l-.246.438c-1.117,1.739-2.917,2.3-4.842,2.917-.373.125-.684.25-1.056.374-4.222,1.49-5.588,3.415-4.842,7.015a3.887,3.887,0,0,0,.62,1.242,2.487,2.487,0,0,1,.372.682,1.238,1.238,0,0,0-.5.621,1.388,1.388,0,0,0,.124,1.3c.311.435.559.87.87,1.3l.3.455H369.9l.019,2.1H358.947l.291.453a8.32,8.32,0,0,1,.8,5.929.689.689,0,0,0,.249.684,7.824,7.824,0,0,0,3.85,1.055c.31,0,1.241.931,1.613.249.684-1.429,1.739-1.676,3.228-1.676l1.056-.931.124.931a3.019,3.019,0,0,0,2.36-1.056c1.427-1.677,3.352-2.049,5.463-2.421a11.68,11.68,0,0,0,1.429-.249c.247-.063.434-.125.621-.186a2.354,2.354,0,0,1,1.3-.125c1.925.621,4.036,1.552,5.028,3.975a.66.66,0,0,0,.435.372c.186,0,.372-.931.621-1.117l1.427-.311a2.142,2.142,0,0,0,.807,1.8,1.428,1.428,0,0,0,.994,1.49c.31.186.435.249.435.311.247,3.042,1.366,4.034,4.532,4.159,1.117.061,1.986-.745,2.732-.373a2.893,2.893,0,0,0,1.427.373,2.167,2.167,0,0,0,1.552-.559c.931-.682,1.49-.932,2.358-.621a.561.561,0,0,0,.311.063c.434,0,.994-.249,1.3-1.429a17.791,17.791,0,0,1,3.291-6.023,14.669,14.669,0,0,0,2.137-4.767H392.887a3.1,3.1,0,0,0,1.053-2.1h17.23c.158-.979.175-1.469.271-2.443l.063-.434c.185-1.49-.682-2.546-1.429-3.538m-33.026,8.5h-6.018V482.731h2.439v7.952h3.579Zm7.771-2.149v2.149h-6.652v-2.149l3.746-4.067a1.461,1.461,0,0,0,.525-1.105.87.87,0,0,0-.93-.957.891.891,0,0,0-.96,1h-2.382a3.1,3.1,0,0,1,3.341-3.151,3.041,3.041,0,0,1,3.311,3.124,3.372,3.372,0,0,1-1.279,2.541l-2.469,2.615Zm4.427,2.3c-1.9,0-3.472-1.03-3.472-3.181a2.678,2.678,0,0,1,1.161-2.222,2.607,2.607,0,0,1-1.059-2.048,3.384,3.384,0,0,1,6.738,0,2.607,2.607,0,0,1-1.059,2.048,2.674,2.674,0,0,1,1.161,2.222c0,2.15-1.567,3.181-3.47,3.181m6.629-9.53a3.552,3.552,0,0,1-3.008-1.667h1.866a2.206,2.206,0,0,0,2.282,0h1.866a3.551,3.551,0,0,1-3.007,1.667m3.367-2.755H397.77a2.178,2.178,0,0,0,.309-1.123,2.2,2.2,0,1,0-4.4,0,2.18,2.18,0,0,0,.31,1.123H392.51a3.55,3.55,0,1,1,6.734,0" transform="translate(2.609 3.681)" fill="#fff"/></g></svg>