<svg xmlns="http://www.w3.org/2000/svg" width="22.959" height="22.232" viewBox="0 0 22.959 22.232"><g transform="translate(0 0)"><g transform="translate(2.829 2.829)"><path d="M4.032,8.871h.694a.113.113,0,0,1,.113.113v.581a.113.113,0,0,0,.113.113h.58a.113.113,0,0,1,.113.113v.58a.113.113,0,0,1-.113.113H1.727a.113.113,0,0,1-.113-.113v-.58a.113.113,0,0,1,.113-.113h.58a.113.113,0,0,0,.113-.113V8.177a.113.113,0,0,1,.113-.113H3.921a.113.113,0,0,1,.113.113v.693Zm10.6,7.257h.579a.113.113,0,0,0,.113-.113v-.58a.113.113,0,0,0-.113-.113H14.63a.113.113,0,0,0-.113.113v.58A.113.113,0,0,0,14.63,16.128ZM4.952,8.871h.58a.113.113,0,0,0,.113-.113v-.58a.113.113,0,0,0-.113-.113h-.58a.113.113,0,0,0-.113.113v.58A.113.113,0,0,0,4.952,8.871Zm11.288,7.257h.581a.113.113,0,0,0,.113-.113v-.58a.113.113,0,0,0-.113-.113h-.581a.113.113,0,0,0-.113.113v.58A.113.113,0,0,0,16.241,16.128Zm-9.675.806H7.952a.113.113,0,0,0,.113-.113v-.58a.113.113,0,0,0-.113-.113H6.566a.113.113,0,0,0-.113.113v.58A.113.113,0,0,0,6.566,16.934Zm7.143-.113v-.58a.113.113,0,0,0-.113-.113h-.581a.113.113,0,0,0-.113.113v.58a.113.113,0,0,0,.113.113H13.6A.113.113,0,0,0,13.709,16.821Zm-3.112.113h.58a.113.113,0,0,0,.113-.113V15.434a.113.113,0,0,0-.113-.113H10.6a.113.113,0,0,0-.113.113v1.387A.113.113,0,0,0,10.6,16.934ZM4.032,6.565v.58a.113.113,0,0,0,.113.113H6.339a.113.113,0,0,0,.113-.113v-.58a.113.113,0,0,0-.113-.113H4.146A.113.113,0,0,0,4.032,6.565Zm-.805.58v-.58a.113.113,0,0,0-.113-.113H1.726a.113.113,0,0,0-.113.113V7.951a.113.113,0,0,0,.113.113h.58a.113.113,0,0,0,.113-.113v-.58a.113.113,0,0,1,.113-.113h.581A.113.113,0,0,0,3.227,7.145Zm2.306-1.5H.114A.113.113,0,0,1,0,5.531V.114A.113.113,0,0,1,.114,0H5.533a.113.113,0,0,1,.113.113V5.531A.113.113,0,0,1,5.533,5.645ZM4.726.807H.92A.113.113,0,0,0,.807.92V4.725a.113.113,0,0,0,.113.113H4.726a.113.113,0,0,0,.113-.113V.92A.113.113,0,0,0,4.726.807Zm-3,14.514H3.919a.113.113,0,0,0,.113-.113V13.015a.113.113,0,0,0-.113-.113H1.726a.113.113,0,0,0-.113.113v2.193A.113.113,0,0,0,1.726,15.321Zm7.951-.694v.581a.113.113,0,0,0,.113.113h.581a.113.113,0,0,0,.113-.113v-.581a.113.113,0,0,0-.113-.113H9.79A.113.113,0,0,0,9.677,14.627ZM3.919,1.614H1.727a.113.113,0,0,0-.113.113V3.919a.113.113,0,0,0,.113.113H3.919a.113.113,0,0,0,.113-.113V1.727A.113.113,0,0,0,3.919,1.614ZM16.934.114V5.532a.113.113,0,0,1-.113.113H11.4a.113.113,0,0,1-.113-.113V.114A.113.113,0,0,1,11.4,0h5.418A.113.113,0,0,1,16.934.114Zm-.92.693H12.209A.113.113,0,0,0,12.1.92V4.725a.113.113,0,0,0,.113.113h3.805a.113.113,0,0,0,.113-.113V.92A.113.113,0,0,0,16.014.807ZM.113,11.288H5.532a.113.113,0,0,1,.113.113V16.82a.113.113,0,0,1-.113.113H.113A.113.113,0,0,1,0,16.82V11.4A.113.113,0,0,1,.113,11.288Zm.807,4.84H4.726a.113.113,0,0,0,.113-.113V12.209a.113.113,0,0,0-.113-.113H.92a.113.113,0,0,0-.113.113v3.806A.113.113,0,0,0,.92,16.128ZM.694,6.452H.113A.113.113,0,0,0,0,6.565v3.806a.113.113,0,0,0,.113.113H.694a.113.113,0,0,0,.113-.113V6.565A.113.113,0,0,0,.694,6.452ZM11.29,10.6v.579a.113.113,0,0,0,.113.113h.58a.113.113,0,0,0,.113-.113V10.6a.113.113,0,0,0-.113-.113H11.4A.113.113,0,0,0,11.29,10.6ZM8.87,13.709v-.693a.113.113,0,0,0-.113-.113h-.58a.113.113,0,0,0-.113.113V13.6a.113.113,0,0,1-.113.113H6.565a.113.113,0,0,0-.113.113V15.21a.113.113,0,0,0,.113.113H7.951a.113.113,0,0,1,.113.113v.58a.113.113,0,0,0,.113.113h.58a.113.113,0,0,0,.113-.113V14.629a.113.113,0,0,1,.113-.113h.581a.113.113,0,0,0,.113-.113v-.58a.113.113,0,0,0-.113-.113H8.87ZM6.566,3.226H7.952a.113.113,0,0,0,.113-.113V2.532a.113.113,0,0,0-.113-.113H6.566a.113.113,0,0,0-.113.113v.581A.113.113,0,0,0,6.566,3.226ZM12.9,9.678h1.5a.113.113,0,0,1,.113.113v.58a.113.113,0,0,0,.113.113h.58a.113.113,0,0,0,.113-.113V8.179a.113.113,0,0,0-.113-.113h-.58a.113.113,0,0,1-.113-.113V6.565a.113.113,0,0,0-.113-.113h-.581a.113.113,0,0,0-.113.113V8.758a.113.113,0,0,1-.113.113H11.4a.113.113,0,0,0-.113.113v.581a.113.113,0,0,0,.113.113h.58a.113.113,0,0,1,.113.113v.58a.113.113,0,0,0,.113.113h.58a.113.113,0,0,0,.113-.113V9.678h0Zm.807,2.418h-.694a.113.113,0,0,1-.113-.113V11.4a.113.113,0,0,0-.113-.113h-.58a.113.113,0,0,0-.113.113v1.388a.113.113,0,0,1-.113.113H9.79a.113.113,0,0,0-.113.113V13.6a.113.113,0,0,0,.113.113h1.388a.113.113,0,0,1,.113.113V15.21a.113.113,0,0,0,.113.113h.58a.113.113,0,0,1,.113.113v.58a.113.113,0,0,0,.113.113h.58a.113.113,0,0,0,.113-.113V14.629a.113.113,0,0,1,.113-.113h3a.113.113,0,0,0,.113-.113v-.58a.113.113,0,0,0-.113-.113H13.824a.113.113,0,0,1-.113-.113V12.1Zm.113,0H14.4a.113.113,0,0,0,.113-.113V10.6a.113.113,0,0,0-.113-.113h-.581a.113.113,0,0,0-.113.113v1.386A.113.113,0,0,0,13.823,12.1Zm-6.564-.113V11.4a.113.113,0,0,1,.113-.113h.579a.113.113,0,0,0,.113-.113V10.6a.113.113,0,0,1,.113-.113h.58a.113.113,0,0,0,.113-.113V9.79a.113.113,0,0,1,.113-.113h.581a.113.113,0,0,0,.113-.113V8.176a.113.113,0,0,1,.113-.113h2.192A.113.113,0,0,0,12.1,7.95V6.562a.113.113,0,0,0-.113-.113H11.4a.113.113,0,0,0-.113.113v.58a.113.113,0,0,1-.113.113H10.6a.113.113,0,0,1-.113-.113v-3a.113.113,0,0,0-.113-.113h-.58a.113.113,0,0,1-.113-.113V2.53a.113.113,0,0,1,.113-.113h.58a.113.113,0,0,0,.113-.113V.113A.113.113,0,0,0,10.369,0h-.58a.113.113,0,0,0-.113.113V1.5a.113.113,0,0,1-.113.113h-.58A.113.113,0,0,1,8.869,1.5V.113A.113.113,0,0,0,8.756,0H6.564a.113.113,0,0,0-.113.113V1.5a.113.113,0,0,0,.113.113h.58A.113.113,0,0,0,7.257,1.5V.92A.113.113,0,0,1,7.37.807H7.95A.113.113,0,0,1,8.063.92V2.306a.113.113,0,0,0,.113.113h.58a.113.113,0,0,1,.113.113V4.725a.113.113,0,0,0,.113.113h.58a.113.113,0,0,1,.113.113v.58a.113.113,0,0,1-.113.113h-.58a.113.113,0,0,0-.113.113V7.145a.113.113,0,0,1-.113.113h-.58a.113.113,0,0,1-.113-.113V5.758a.113.113,0,0,0-.113-.113H7.37a.113.113,0,0,1-.113-.113v-.58a.113.113,0,0,0-.113-.113h-.58a.113.113,0,0,0-.113.113V6.339a.113.113,0,0,0,.113.113h.58a.113.113,0,0,1,.113.113v.58a.113.113,0,0,1-.113.113h-.58a.113.113,0,0,0-.113.113V9.565a.113.113,0,0,0,.113.113h.58a.113.113,0,0,0,.113-.113V8.177a.113.113,0,0,1,.113-.113H7.95a.113.113,0,0,1,.113.113V9.565a.113.113,0,0,1-.113.113H7.37a.113.113,0,0,0-.113.113v.58a.113.113,0,0,1-.113.113h-.58a.113.113,0,0,0-.113.113v2.191a.113.113,0,0,0,.113.113H7.95a.113.113,0,0,0,.113-.113v-.58A.113.113,0,0,0,7.95,12.1H7.371A.113.113,0,0,1,7.258,11.983Zm8.869.807v-.58a.113.113,0,0,0-.113-.113H14.629a.113.113,0,0,0-.113.113v.58a.113.113,0,0,0,.113.113h1.386A.113.113,0,0,0,16.128,12.789Zm-.92-11.175H13.016a.113.113,0,0,0-.113.113V3.919a.113.113,0,0,0,.113.113h2.192a.113.113,0,0,0,.113-.113V1.727A.113.113,0,0,0,15.208,1.614ZM8.87,12.1h1.5a.113.113,0,0,0,.113-.113V11.4a.113.113,0,0,0-.113-.113H9.79a.113.113,0,0,1-.113-.113V10.6a.113.113,0,0,0-.113-.113H8.983a.113.113,0,0,0-.113.113v1.5Zm1.614-1.726V9.79a.113.113,0,0,0-.113-.113H9.79a.113.113,0,0,0-.113.113v.58a.113.113,0,0,0,.113.113h.581A.113.113,0,0,0,10.484,10.37Zm4.95-3.112h1.388a.113.113,0,0,0,.113-.113v-.58a.113.113,0,0,0-.113-.113H15.434a.113.113,0,0,0-.113.113v.58A.113.113,0,0,0,15.434,7.258Zm.807,6.451h.581a.113.113,0,0,0,.113-.113v-.58a.113.113,0,0,0-.113-.113h-.581a.113.113,0,0,0-.113.113v.58A.113.113,0,0,0,16.241,13.709Zm0-4.838h.581a.113.113,0,0,0,.113-.113v-.58a.113.113,0,0,0-.113-.113h-.581a.113.113,0,0,0-.113.113v.58A.113.113,0,0,0,16.241,8.871ZM8.757,4.838h-.58a.113.113,0,0,0-.113.113v.58a.113.113,0,0,0,.113.113h.58a.113.113,0,0,0,.113-.113v-.58A.113.113,0,0,0,8.757,4.838Z"/></g><path d="M-8808.559-10168.768a.438.438,0,0,1-.439-.44v-5.293a.439.439,0,0,1,.439-.44.442.442,0,0,1,.441.44v4.852h4.852a.442.442,0,0,1,.441.441.439.439,0,0,1-.441.44Zm16.783-.177a.441.441,0,0,1-.439-.441.441.441,0,0,1,.439-.441h4.854v-4.851a.441.441,0,0,1,.441-.442.442.442,0,0,1,.441.442v5.292a.442.442,0,0,1-.441.441Zm4.854-16.144v-4.852h-4.854a.441.441,0,0,1-.439-.442.439.439,0,0,1,.439-.439h5.295a.441.441,0,0,1,.441.439v5.294a.444.444,0,0,1-.441.443A.443.443,0,0,1-8786.922-10185.088Zm-22.076-.178v-5.291a.439.439,0,0,1,.439-.443h5.293a.441.441,0,0,1,.441.443.44.44,0,0,1-.441.438h-4.852v4.853a.442.442,0,0,1-.441.442A.44.44,0,0,1-8809-10185.266Z" transform="translate(8808.998 10191)" fill="#59b7e8"/></g></svg>