<svg xmlns="http://www.w3.org/2000/svg" width="31.222" height="31.222" viewBox="0 0 31.222 31.222"><path d="M31.222,26.538a4.683,4.683,0,0,1-4.683,4.683H4.683A4.683,4.683,0,0,1,0,26.538V4.683A4.683,4.683,0,0,1,4.683,0H26.538a4.683,4.683,0,0,1,4.683,4.683Z" fill="#2dc100"/><g transform="translate(2.038 3.946)"><path d="M38.442,45.617a9.631,9.631,0,0,0-6.49,2.621,7.707,7.707,0,0,0-2.394,6.529c-.985-.122-1.882-.256-2.784-.332a1.73,1.73,0,0,0-.945.16c-.876.494-1.716,1.052-2.711,1.675.183-.826.3-1.55.51-2.245a.854.854,0,0,0-.389-1.129c-3.025-2.136-4.3-5.332-3.346-8.622a8.535,8.535,0,0,1,6-5.853,10.053,10.053,0,0,1,10.985,3.219A7.524,7.524,0,0,1,38.442,45.617Zm-11.6-1.025a1.161,1.161,0,0,0-1.118-1.162,1.129,1.129,0,0,0-1.174,1.091,1.115,1.115,0,0,0,1.1,1.157A1.147,1.147,0,0,0,26.844,44.592ZM32.9,43.429a1.163,1.163,0,0,0-1.136,1.145,1.134,1.134,0,0,0,1.166,1.109,1.127,1.127,0,1,0-.03-2.254Z" transform="translate(-19.582 -37.92)" fill="#fff"/><path d="M138.543,135.605a8.557,8.557,0,0,0-2.309-.97,12.917,12.917,0,0,0-2.4.45,8.035,8.035,0,0,1-6.518-2.126c-3.476-3.215-2.979-8.144,1.042-10.779a8.766,8.766,0,0,1,11.335,1.688,6.438,6.438,0,0,1-.744,8.98c-.777.689-1.056,1.256-.558,2.165A2.578,2.578,0,0,1,138.543,135.605Zm-9.083-8.794a.939.939,0,1,0,.007-1.878.939.939,0,1,0-.007,1.878Zm5.855-1.876a.939.939,0,0,0-.932.9.926.926,0,1,0,.932-.9Z" transform="translate(-114.021 -112.198)" fill="#fff"/></g></svg>