<svg xmlns="http://www.w3.org/2000/svg" xmlns:xlink="http://www.w3.org/1999/xlink" width="10.719" height="100.312" viewBox="0 0 10.719 100.312"><defs><linearGradient id="a" x1="0.5" x2="0.5" y2="1" gradientUnits="objectBoundingBox"><stop offset="0" stop-color="#b9041a"/><stop offset="0.838" stop-color="#b30419"/><stop offset="0.885" stop-color="#a50417"/><stop offset="0.918" stop-color="#920415"/><stop offset="0.954" stop-color="#6a0411"/><stop offset="1" stop-color="#0e0407"/></linearGradient></defs><path d="M10,0S8.536-4.479,8.536,20.521c0,4.725,1.375,10.888,1.464,17.468.057,4.2-2.7,7.516-2.432,19.025.1,4.27,1.555,11.777,1.986,19.2C10.239,88.035,10,100,10,100H0s1.978-6.32,1.957-24.527c0-3.012-2.688-15.019-2.635-18.459.076-4.876,2.034-14.75,2.034-19.025C1.355,15.488,0,10,0,10A10,10,0,0,1,10,0Z" transform="translate(0.679 0.312)" fill="url(#a)"/></svg>